<svg width="1512" height="470" viewBox="0 0 1512 470" fill="none" xmlns="http://www.w3.org/2000/svg">
<path d="M1512 484L0 484V18.3694L90.5625 10.6089L100.8 6.72864L149.625 9.46765L197.269 13.3479L212.625 17.2281L256.725 8.32639L289.8 9.46765L378.787 0.109375L418.556 10.3806L444.544 6.5004L474.862 9.69589L521.719 6.5004H567L614.053 9.81003L635.906 17.2281L647.325 20.4236L667.8 22.9344L711.112 23.6191L756.787 18.1411L851.189 17.4564L898.144 14.0327L919.8 21.1084L948.15 17.4564L1039.89 21.1084L1080.45 19.7389L1098.17 14.7174L1154 29.4998L1178.89 19.7389L1210 21.1084L1248.5 29.4998H1237H1257.64L1291.5 29.4998H1307.5L1343.5 40.4998H1348.2L1369.5 34.1155L1381.5 40.4998L1388.76 34.1155H1404.5L1427 29.4998L1459.63 34.1155H1469.5H1478.5L1488 35.4998L1496.5 34.1155L1505.5 35.4998L1512 34.1155V484Z" fill="#4D6BC6"/>
</svg>
