<svg width="1511" height="582" viewBox="0 0 1511 582" fill="none" xmlns="http://www.w3.org/2000/svg">
<path fill-rule="evenodd" clip-rule="evenodd" d="M-1 810.636V409.823V19.6363L89.5625 6.54541L99.7999 -6.10352e-05L148.625 4.6203L196.269 11.1657L211.625 17.7112L256.925 31.9571L290 33.8823L378.987 18.0962L418.756 35.4224L444.744 28.877L475.062 34.2673L521.919 28.877H567.2L614.253 34.4598L636.106 46.9731L647.525 52.3635L668 56.5989L707.612 50.0533L753.287 40.8127L847.689 39.6577L894.644 33.8823L916.3 45.8181L944.65 39.6577L988.5 43.5079H1029.5L1063 48.8983L1105.5 63.3848L1131 41.8234H1163L1188.5 28.4919H1210.5L1222 21.9465L1256.64 28.4919H1278.69H1290.5L1311.84 42.3529L1330.74 38.1176L1342.1 42.3529L1350.76 47.3583L1361 42.3529L1372.15 38.5026L1387.41 34.941L1402 38.5026L1418.5 34.941L1433.5 28.4919L1452 10.0106L1483.44 6.54541L1511 10.0106V409.823V409.824V801.01L1420.44 814.101L1410.2 820.647L1361.38 816.026L1313.73 809.481L1298.38 802.936L1254.28 817.952L1221.2 816.026L1132.21 831.813L1092.44 814.486L1066.46 821.032L1036.14 815.641L989.281 821.032H944L896.947 815.449L875.094 802.936L863.675 797.545L843.2 793.31L799.888 792.155L754.213 801.395L659.811 802.551L612.856 808.326L591.2 796.39L562.85 802.551L471.106 796.39L430.55 798.7L412.831 807.171L420.706 828.347L384.875 827.962L363.022 832.39L332.113 831.428L308.881 837.588H289.981L274.231 835.278L253.363 828.732H246.275L231.312 841.823L219.5 835.278L197.056 839.513L188.394 834.508L178.156 839.513L162.8 828.732L147.542 832.294L135.238 831.428L122.244 822.572L102.556 818.337L51.3688 811.021L26.5625 814.101L-1 810.636Z" fill="#FDECD3"/>
</svg>
