<svg width="1512" height="297" viewBox="0 0 1512 297" fill="none" xmlns="http://www.w3.org/2000/svg">
<path fill-rule="evenodd" clip-rule="evenodd" d="M1512 26.6751V369.5V704.092L1421.44 715.289L1411.2 720.887L1362.38 716.935L1314.73 711.337L1299.38 705.738L1255.28 718.582L1222.2 716.935L1133.21 730.438L1093.44 715.618L1067.46 721.217L1037.14 716.606L990.281 721.217H945L897.947 716.441L876.094 705.738L864.675 701.128L844.2 697.505L800.888 696.517L755.213 704.421L660.811 705.409L613.856 710.349L592.2 700.14L563.85 705.409L472.106 700.14L431.55 702.116L413.831 709.361L421.706 727.474L385.875 727.144L364.022 730.932L333.113 730.108L309.881 735.377H290.981L275.231 733.401L254.363 727.803H247.275L232.312 739L220.5 733.401L198.056 737.024L189.394 732.743L179.156 737.024L163.8 727.803L148.542 730.849L136.238 730.108L123.244 722.534L103.556 718.911L52.3688 712.654L27.5625 715.289L0 712.325V369.5V34.9082L90.5625 23.7112L100.8 18.1128L149.625 22.0646L197.269 27.6631L212.625 33.2616L256.725 20.418L289.8 22.0646L378.787 8.56238L418.556 23.3819L444.544 17.7834L474.862 22.394L521.719 17.7834H567L614.053 22.5586L635.906 33.2616L647.325 37.8721L667.8 41.4947L711.112 42.4826L756.787 34.5789L851.189 33.5909L898.144 28.6511L919.8 38.8601L948.15 33.5909L1039.89 38.8601L1080.45 36.8841L1098.17 29.639L1090.29 11.5263L1126.12 11.8556L1147.98 8.06842L1178.89 8.89172L1202.12 3.62256H1221.02L1236.77 5.59848L1257.64 11.197H1264.72L1279.69 0L1291.5 5.59848L1313.94 1.97595L1322.61 6.25714L1332.84 1.97595L1348.2 11.197L1363.46 8.15073L1375.76 8.89172L1388.76 16.4661L1408.44 20.0887L1459.63 26.3458L1484.44 23.7112L1512 26.6751Z" fill="#D7E6F4"/>
</svg>
